<svg xmlns="http://www.w3.org/2000/svg" version="1.1" xmlns:xlink="http://www.w3.org/1999/xlink" xmlns:svgjs="http://svgjs.com/svgjs" width="512" height="512" x="0" y="0" viewBox="0 0 512 512" style="enable-background:new 0 0 512 512" xml:space="preserve" class=""><g><g id="Layer_1" data-name="Layer 1"><path d="m265.366 505.348h-21.88a11.233 11.233 0 0 1 -11.234-11.234v-58.188h44.348v58.188a11.234 11.234 0 0 1 -11.234 11.234z" fill="#bfbfbf" data-original="#bfbfbf"></path><path d="m257.366 505.348h-13.88a11.233 11.233 0 0 1 -11.234-11.234v-58.188h15.391v58.188c0 6.205 6.589 11.234 9.723 11.234z" fill="#8c8c8c" data-original="#8c8c8c"></path><path d="m475.066 232.863c0 121.856-98.784 220.64-220.64 220.64s-220.64-98.784-220.64-220.64 98.784-220.64 220.64-220.64 220.64 98.784 220.64 220.64z" fill="#ff5959" data-original="#ff5959"></path><path d="m265.513 453.226q-5.51.273-11.087.277c-121.856 0-220.64-98.784-220.64-220.64s98.784-220.64 220.64-220.64q5.577 0 11.087.277c-116.705 5.776-209.553 102.225-209.553 220.363s92.848 214.587 209.553 220.363z" fill="#e63a57" data-original="#e63a57"></path><path d="m412.42 232.863a157.994 157.994 0 1 1 -157.994-157.994 157.994 157.994 0 0 1 157.994 157.994z" fill="#f5f5f5" data-original="#f5f5f5"></path><path d="m264.513 390.527c-3.336.211-6.7.33-10.087.33a157.994 157.994 0 0 1 0-315.988c3.389 0 6.751.119 10.087.329a157.986 157.986 0 0 0 0 315.329z" fill="#e6e6e6" data-original="#e6e6e6"></path><path d="m349.774 232.863a95.348 95.348 0 1 1 -95.348-95.348 95.348 95.348 0 0 1 95.348 95.348z" fill="#ffdf40" data-original="#ffdf40"></path><path d="m276.6 230.6a22.174 22.174 0 1 1 -22.174-22.174 22.175 22.175 0 0 1 22.174 22.174z" fill="#ff5959" data-original="#ff5959"></path><path d="m254.426 235.6a5 5 0 0 1 -3.538-8.533l132.812-132.967a5 5 0 1 1 7.076 7.066l-132.812 132.972a4.989 4.989 0 0 1 -3.538 1.462z" fill="#bfbfbf" data-original="#bfbfbf"></path><path d="m478.214 45.416-61.225 61.225-34.2-4.561-4.561-34.2 61.222-61.228 4.561 34.2z" fill="#393939" data-original="#393939"></path></g></g></svg>