<svg xmlns="http://www.w3.org/2000/svg" version="1.1" xmlns:xlink="http://www.w3.org/1999/xlink" xmlns:svgjs="http://svgjs.com/svgjs" width="512" height="512" x="0" y="0" viewBox="0 0 20.398 21.02" style="enable-background:new 0 0 512 512" xml:space="preserve" class=""><g><g id="Layer_2" data-name="Layer 2"><g id="Layer_1-2" data-name="Layer 1"><g id="vision"><g fill="#40518a"><path d="m3.218 17.873c-.416.448.329 1.1.719.615.408-.462-.337-1.088-.719-.615z" fill="#40518a" data-original="#40518a"></path><path d="m5.965 1.773c.765-.014.5-1.193-.2-.907a.478.478 0 0 0 .2.907z" fill="#40518a" data-original="#40518a"></path><path d="m6.2 19.3a.478.478 0 0 0 -.4.869.478.478 0 0 0 .4-.869z" fill="#40518a" data-original="#40518a"></path><path d="m3.544 3.342c.871-.065.388-1.347-.312-.831a.478.478 0 0 0 .312.831z" fill="#40518a" data-original="#40518a"></path><path d="m8.729.96a.474.474 0 1 0 -.065-.945.474.474 0 0 0 .065.945z" fill="#40518a" data-original="#40518a"></path><path d="m.334 8.135a.477.477 0 0 0 .266-.916.477.477 0 0 0 -.266.916z" fill="#40518a" data-original="#40518a"></path><path d="m1.421 15.6c-.52.331.022 1.153.52.8a.475.475 0 0 0 -.52-.8z" fill="#40518a" data-original="#40518a"></path><path d="m.349 12.929a.472.472 0 0 0 .264.907.472.472 0 0 0 -.264-.907z" fill="#40518a" data-original="#40518a"></path><path d="m8.838 20.076a.473.473 0 0 0 -.132.936.473.473 0 0 0 .132-.936z" fill="#40518a" data-original="#40518a"></path><path d="m1.4 5.451a.478.478 0 0 0 .515-.8.478.478 0 0 0 -.515.8z" fill="#40518a" data-original="#40518a"></path><path d="m18.708 5.47a.471.471 0 1 0 -.26-.87.476.476 0 0 0 .26.87z" fill="#40518a" data-original="#40518a"></path><path d="m18.987 15.586a.477.477 0 0 0 -.516.8.477.477 0 0 0 .516-.8z" fill="#40518a" data-original="#40518a"></path><path d="m19.914 8.089a.472.472 0 1 0 -.133-.927.472.472 0 0 0 .133.927z" fill="#40518a" data-original="#40518a"></path><path d="m20.06 12.91a.473.473 0 0 0 -.265.908.473.473 0 0 0 .265-.908z" fill="#40518a" data-original="#40518a"></path><path d="m11.547.942a.473.473 0 0 0 .132-.936.473.473 0 0 0 -.132.936z" fill="#40518a" data-original="#40518a"></path><path d="m14.185 1.707a.473.473 0 0 0 .392-.86.473.473 0 0 0 -.392.86z" fill="#40518a" data-original="#40518a"></path><path d="m11.584 20.076a.473.473 0 0 0 .133.936.473.473 0 0 0 -.133-.936z" fill="#40518a" data-original="#40518a"></path><path d="m16.529 17.807a.476.476 0 0 0 .624.719.476.476 0 0 0 -.624-.719z" fill="#40518a" data-original="#40518a"></path><path d="m14.222 19.3a.474.474 0 0 0 .4.86.474.474 0 0 0 -.4-.86z" fill="#40518a" data-original="#40518a"></path><path d="m16.808 3.305a.479.479 0 0 0 .317-.832c-.697-.525-1.181.764-.317.832z" fill="#40518a" data-original="#40518a"></path></g><path d="m20.334 10.509c-6.511 8.828-13.808 8.756-20.269 0 6.504-8.803 13.804-8.757 20.269 0z" fill="#d7dcf4" data-original="#d7dcf4" class=""></path><path d="m14.95 10.509c-.194 6.29-9.31 6.28-9.5 0 .194-6.269 9.305-6.276 9.5 0z" fill="#6996fa" data-original="#6996fa" class=""></path><path d="m12.1 10.509a1.9 1.9 0 0 1 -3.8 0 1.9 1.9 0 0 1 3.8 0z" fill="#40518a" data-original="#40518a"></path><path d="m9.566 8.93a.95.95 0 0 1 -1.9 0 .95.95 0 0 1 1.9 0z" fill="#ffffff" data-original="#ffffff"></path></g></g></g></g></svg>